<?xml version="1.0" encoding="utf-8"?>
<!-- Generator: Adobe Illustrator 19.2.1, SVG Export Plug-In . SVG Version: 6.00 Build 0)  -->
<!DOCTYPE svg PUBLIC "-//W3C//DTD SVG 1.1//EN" "http://www.w3.org/Graphics/SVG/1.1/DTD/svg11.dtd">
<svg version="1.1" id="Layer_1" xmlns="http://www.w3.org/2000/svg" xmlns:xlink="http://www.w3.org/1999/xlink" x="0px" y="0px"
	 viewBox="0 0 34.4 34.4" style="enable-background:new 0 0 34.4 34.4;" xml:space="preserve">
<title>codepen</title>
<desc>Created with Sketch Beta.</desc>
<metadata><?xpacket begin="﻿" id="W5M0MpCehiHzreSzNTczkc9d"?>
<x:xmpmeta xmlns:x="adobe:ns:meta/" x:xmptk="Adobe XMP Core 5.6-c111 79.158366, 2015/09/25-01:12:00        ">
   <rdf:RDF xmlns:rdf="http://www.w3.org/1999/02/22-rdf-syntax-ns#">
      <rdf:Description rdf:about=""
            xmlns:dc="http://purl.org/dc/elements/1.1/">
         <dc:description>
            <rdf:Alt>
               <rdf:li xml:lang="x-default">Created with Sketch Beta.</rdf:li>
            </rdf:Alt>
         </dc:description>
         <dc:title>
            <rdf:Alt>
               <rdf:li xml:lang="x-default">codepen</rdf:li>
            </rdf:Alt>
         </dc:title>
      </rdf:Description>
   </rdf:RDF>
</x:xmpmeta>
                                                                                                    
                                                                                                    
                                                                                                    
                                                                                                    
                                                                                                    
                                                                                                    
                                                                                                    
                                                                                                    
                                                                                                    
                                                                                                    
                                                                                                    
                                                                                                    
                                                                                                    
                                                                                                    
                                                                                                    
                                                                                                    
                                                                                                    
                                                                                                    
                                                                                                    
                                                                                                    
                           
<?xpacket end="w"?></metadata>
<g id="Symbols">
	<g id="footer" transform="translate(-625.000000, -77.000000)">
		<g id="social-media" transform="translate(371.000000, 77.000000)">
			<g id="codepen">
				<g transform="translate(254.000000, 0.000000)">
					<path id="Fill-1" d="M17.2,31.6c-7.9,0-14.4-6.4-14.4-14.4c0-7.9,6.4-14.4,14.4-14.4c7.9,0,14.4,6.4,14.4,14.4
						C31.6,25.1,25.1,31.6,17.2,31.6 M17.2,0C7.7,0,0,7.7,0,17.2s7.7,17.2,17.2,17.2s17.2-7.7,17.2-17.2S26.7,0,17.2,0"/>
					<path id="Fill-3" d="M26,18.7l-2.3-1.5l2.3-1.5V18.7z M18.1,25.2v-4.3l4-2.6l3.2,2.1L18.1,25.2z M17.2,19.4L14,17.2l3.2-2.2
						l3.2,2.2L17.2,19.4z M16.3,25.2l-7.2-4.8l3.2-2.1l4,2.6V25.2L16.3,25.2z M8.4,15.7l2.3,1.5l-2.3,1.5V15.7z M16.3,9.2v4.3
						l-4,2.6L9.1,14L16.3,9.2z M18.1,9.2l7.2,4.8l-3.2,2.1l-4-2.6C18.1,13.5,18.1,9.2,18.1,9.2z M27.8,13.8L27.8,13.8
						c0-0.1,0-0.1,0-0.1l0,0c0,0,0,0,0-0.1l0,0c0,0,0,0,0-0.1l0,0c0,0,0,0,0-0.1l0,0l0,0l0,0c0,0,0,0-0.1,0l0,0l0,0L18,6.9
						c-0.3-0.2-0.7-0.2-1,0L7,13.2l0,0l0,0c0,0,0,0-0.1,0l0,0l0,0l0,0c0,0,0,0,0,0.1l0,0c0,0,0,0,0,0.1l0,0c0,0,0,0,0,0.1l0,0v0.1
						l0,0v0.1v6.5v0.1l0,0v0.1l0,0c0,0,0,0,0,0.1l0,0c0,0,0,0,0,0.1l0,0c0,0,0,0,0,0.1l0,0l0,0l0,0c0,0,0,0,0.1,0l0,0l0,0l9.7,6.5
						c0.2,0.1,0.3,0.2,0.5,0.2s0.4-0.1,0.5-0.2l9.7-6.5l0,0l0,0c0,0,0,0,0.1,0l0,0l0,0l0,0c0,0,0,0,0-0.1l0,0c0,0,0,0,0-0.1l0,0
						c0,0,0,0,0-0.1l0,0v-0.1l0,0v-0.1V14C27.8,13.9,27.8,13.9,27.8,13.8L27.8,13.8z"/>
				</g>
			</g>
		</g>
	</g>
</g>
</svg>
