<?xml version="1.0" encoding="UTF-8"?>
<svg width="32px" height="32px" viewBox="0 0 32 32" version="1.1" xmlns="http://www.w3.org/2000/svg" xmlns:xlink="http://www.w3.org/1999/xlink">
    <!-- Generator: Sketch Beta 45 (43445) - http://www.bohemiancoding.com/sketch -->
    <title>dribbble</title>
    <desc>Created with Sketch Beta.</desc>
    <defs>
        <polygon id="path-1" points="5.42101086e-20 0.0004 5.42101086e-20 32 31.9996 32 31.9996 0.0004"></polygon>
    </defs>
    <g id="Symbols" stroke="none" stroke-width="1" fill="none" fill-rule="evenodd">
        <g id="footer" transform="translate(-570.000000, -78.000000)">
            <g id="social-media" transform="translate(371.000000, 77.000000)">
                <g id="dribbble">
                    <g transform="translate(199.000000, 1.000000)">
                        <mask id="mask-2" fill="white">
                            <use xlink:href="#path-1"></use>
                        </mask>
                        <g id="Clip-2"></g>
                        <path d="M26.5786,7.3784 C26.2906,7.7684 24.0006,10.7044 18.9476,12.7674 C19.2656,13.4184 19.5706,14.0804 19.8546,14.7464 C19.9546,14.9824 20.0526,15.2174 20.1486,15.4514 C24.6956,14.8794 29.2146,15.7964 29.6646,15.8914 C29.6346,12.6664 28.4826,9.7044 26.5786,7.3784 M12.7976,2.7344 C13.1756,3.2404 15.6576,6.6204 17.8966,10.7344 C22.7566,8.9134 24.8136,6.1484 25.0596,5.7984 C22.6456,3.6564 19.4726,2.3544 15.9996,2.3544 C14.8976,2.3544 13.8256,2.4864 12.7976,2.7344 M2.6216,13.2214 C3.2336,13.2304 8.8646,13.2544 15.2566,11.5564 C12.9926,7.5314 10.5496,4.1474 10.1896,3.6524 C6.3666,5.4564 3.5086,8.9814 2.6216,13.2214 M5.8466,25.1584 C6.1566,24.6294 9.9076,18.4184 16.9556,16.1404 C17.1336,16.0824 17.3136,16.0284 17.4936,15.9774 C17.1506,15.2014 16.7776,14.4234 16.3866,13.6584 C9.5606,15.7004 2.9386,15.6154 2.3406,15.6034 C2.3366,15.7424 2.3336,15.8814 2.3336,16.0214 C2.3336,19.5304 3.6636,22.7354 5.8466,25.1584 M21.3386,28.6014 C21.1356,27.4024 20.3416,23.2234 18.4226,18.2374 C18.3926,18.2474 18.3626,18.2574 18.3326,18.2674 C10.6246,20.9544 7.8576,26.2994 7.6116,26.8024 C9.9286,28.6094 12.8406,29.6874 15.9996,29.6874 C17.8926,29.6874 19.6976,29.3004 21.3386,28.6014 M29.4936,18.1904 C29.0266,18.0434 25.2636,16.9204 20.9806,17.6064 C22.7686,22.5184 23.4956,26.5184 23.6356,27.3494 C26.7016,25.2764 28.8846,21.9924 29.4936,18.1904 M15.9996,32.0004 C7.1776,32.0004 -0.0004,24.8224 -0.0004,16.0004 C-0.0004,7.1774 7.1776,0.0004 15.9996,0.0004 C24.8226,0.0004 31.9996,7.1774 31.9996,16.0004 C31.9996,24.8224 24.8226,32.0004 15.9996,32.0004" id="Fill-1" fill="#000000" mask="url(#mask-2)"></path>
                    </g>
                </g>
            </g>
        </g>
    </g>
</svg>