<?xml version="1.0" encoding="UTF-8"?>
<svg width="32px" height="32px" viewBox="0 0 32 32" version="1.1" xmlns="http://www.w3.org/2000/svg" xmlns:xlink="http://www.w3.org/1999/xlink">
    <!-- Generator: Sketch Beta 45 (43445) - http://www.bohemiancoding.com/sketch -->
    <title>instagram</title>
    <desc>Created with Sketch Beta.</desc>
    <defs></defs>
    <g id="Symbols" stroke="none" stroke-width="1" fill="none" fill-rule="evenodd">
        <g id="footer" transform="translate(-461.000000, -78.000000)" fill="#000000">
            <g id="social-media" transform="translate(371.000000, 77.000000)">
                <g id="instagram">
                    <path d="M118,9 C118,10.104 117.106,11 116,11 L114,11 C112.896,11 112,10.104 112,9 L112,7 C112,5.896 112.896,5 114,5 L116,5 C117.106,5 118,5.896 118,7 L118,9 Z M118,27 C118,28.105 117.106,29 116,29 L96,29 C94.894,29 94,28.105 94,27 L94,17 C94,15.895 94.894,15 96,15 L98.284,15 C98.116,15.643 98,16.305 98,17 C98,21.418 101.582,25 106,25 C110.418,25 114,21.418 114,17 C114,16.305 113.882,15.643 113.716,15 L116,15 C117.106,15 118,15.895 118,17 L118,27 Z M106,13 C109.684,13 110,17 110,17 C110,17 110.118,21 106,21 C101.884,21 102,17 102,17 C102,17 102.316,13 106,13 L106,13 Z M118,1 L94,1 C91.792,1 90,2.792 90,5 L90,29 C90,31.208 91.792,33 94,33 L118,33 C120.208,33 122,31.208 122,29 L122,5 C122,2.792 120.208,1 118,1 L118,1 Z"></path>
                </g>
            </g>
        </g>
    </g>
</svg>