<?xml version="1.0" encoding="UTF-8"?>
<svg width="32px" height="32px" viewBox="0 0 32 32" version="1.1" xmlns="http://www.w3.org/2000/svg" xmlns:xlink="http://www.w3.org/1999/xlink">
    <!-- Generator: Sketch Beta 45 (43445) - http://www.bohemiancoding.com/sketch -->
    <title>pinterest</title>
    <desc>Created with Sketch Beta.</desc>
    <defs></defs>
    <g id="Symbols" stroke="none" stroke-width="1" fill="none" fill-rule="evenodd">
        <g id="footer" transform="translate(-515.000000, -78.000000)" fill="#000000">
            <g id="social-media" transform="translate(371.000000, 77.000000)">
                <g id="pinterest">
                    <path d="M176,17 C176,19.902 175.285,22.58 173.854,25.031 C172.424,27.482 170.482,29.424 168.031,30.854 C165.58,32.285 162.903,33 160,33 C158.458,33 156.944,32.777 155.458,32.334 C156.278,31.041 156.819,29.902 157.083,28.916 C157.208,28.444 157.583,26.979 158.208,24.521 C158.486,25.063 158.993,25.531 159.729,25.928 C160.465,26.322 161.257,26.521 162.104,26.521 C163.785,26.521 165.285,26.045 166.604,25.094 C167.924,24.143 168.944,22.834 169.666,21.166 C170.389,19.5 170.75,17.625 170.75,15.541 C170.75,13.959 170.337,12.473 169.51,11.084 C168.684,9.694 167.486,8.562 165.916,7.687 C164.347,6.812 162.576,6.375 160.604,6.375 C159.146,6.375 157.785,6.576 156.521,6.979 C155.257,7.382 154.184,7.916 153.302,8.584 C152.42,9.25 151.663,10.018 151.031,10.885 C150.399,11.754 149.934,12.652 149.635,13.584 C149.337,14.514 149.187,15.444 149.187,16.375 C149.187,17.819 149.465,19.09 150.021,20.188 C150.576,21.285 151.389,22.056 152.458,22.5 C152.875,22.666 153.139,22.527 153.25,22.084 C153.278,21.986 153.333,21.771 153.416,21.437 C153.5,21.104 153.556,20.896 153.583,20.813 C153.666,20.493 153.59,20.194 153.354,19.916 C152.646,19.069 152.291,18.021 152.291,16.771 C152.291,14.674 153.018,12.871 154.469,11.365 C155.92,9.857 157.819,9.104 160.166,9.104 C162.264,9.104 163.899,9.674 165.073,10.813 C166.247,11.951 166.833,13.431 166.833,15.25 C166.833,17.611 166.357,19.618 165.406,21.271 C164.455,22.924 163.236,23.75 161.75,23.75 C160.903,23.75 160.222,23.447 159.708,22.844 C159.194,22.24 159.035,21.514 159.229,20.666 C159.34,20.181 159.524,19.531 159.781,18.719 C160.038,17.906 160.247,17.191 160.406,16.572 C160.566,15.955 160.646,15.431 160.646,15 C160.646,14.306 160.458,13.729 160.083,13.271 C159.708,12.813 159.174,12.584 158.479,12.584 C157.618,12.584 156.889,12.979 156.291,13.771 C155.694,14.562 155.396,15.549 155.396,16.729 C155.396,17.743 155.569,18.59 155.916,19.271 L153.854,27.979 C153.618,28.951 153.528,30.181 153.583,31.666 C150.722,30.402 148.41,28.451 146.646,25.813 C144.882,23.174 144,20.236 144,17 C144,14.098 144.715,11.42 146.146,8.969 C147.576,6.518 149.518,4.576 151.969,3.146 C154.42,1.715 157.097,1 160,1 C162.903,1 165.58,1.715 168.031,3.146 C170.482,4.576 172.424,6.518 173.854,8.969 C175.285,11.42 176,14.098 176,17"></path>
                </g>
            </g>
        </g>
    </g>
</svg>