<?xml version="1.0" encoding="utf-8"?>
<!-- Generator: Adobe Illustrator 19.2.1, SVG Export Plug-In . SVG Version: 6.00 Build 0)  -->
<!DOCTYPE svg PUBLIC "-//W3C//DTD SVG 1.1//EN" "http://www.w3.org/Graphics/SVG/1.1/DTD/svg11.dtd">
<svg version="1.1" id="Layer_1" xmlns="http://www.w3.org/2000/svg" xmlns:xlink="http://www.w3.org/1999/xlink" x="0px" y="0px"
	 viewBox="0 0 13.5 13.5" style="enable-background:new 0 0 13.5 13.5;" xml:space="preserve">
<style type="text/css">
	.st0{fill:#FFFFFF;}
</style>
<title>Shape</title>
<desc>Created with Sketch Beta.</desc>
<metadata><?xpacket begin="﻿" id="W5M0MpCehiHzreSzNTczkc9d"?>
<x:xmpmeta xmlns:x="adobe:ns:meta/" x:xmptk="Adobe XMP Core 5.6-c111 79.158366, 2015/09/25-01:12:00        ">
   <rdf:RDF xmlns:rdf="http://www.w3.org/1999/02/22-rdf-syntax-ns#">
      <rdf:Description rdf:about=""
            xmlns:dc="http://purl.org/dc/elements/1.1/">
         <dc:description>
            <rdf:Alt>
               <rdf:li xml:lang="x-default">Created with Sketch Beta.</rdf:li>
            </rdf:Alt>
         </dc:description>
         <dc:title>
            <rdf:Alt>
               <rdf:li xml:lang="x-default">Shape</rdf:li>
            </rdf:Alt>
         </dc:title>
      </rdf:Description>
   </rdf:RDF>
</x:xmpmeta>





















<?xpacket end="w"?></metadata>
<path id="Shape" class="st0" d="M13.5,12.6L9.8,8.9c0.7-1,1.2-2.1,1.2-3.4c0-1.5-0.6-2.8-1.6-3.9C8.3,0.6,7,0,5.5,0S2.6,0.6,1.6,1.6
	C0.6,2.6,0,4,0,5.5s0.6,2.8,1.6,3.9c1,1,2.4,1.6,3.9,1.6c1.2,0,2.4-0.4,3.4-1.2l3.7,3.7L13.5,12.6z M5.5,9.6c-1.1,0-2.1-0.4-2.9-1.2
	C1.8,7.6,1.4,6.6,1.4,5.5c0-1.1,0.4-2.1,1.2-2.9c0.8-0.8,1.8-1.2,2.9-1.2s2.1,0.4,2.9,1.2c0.8,0.8,1.2,1.8,1.2,2.9
	c0,1.1-0.4,2.1-1.2,2.9C7.6,9.2,6.6,9.6,5.5,9.6z"/>
</svg>
