<?xml version="1.0" encoding="UTF-8"?>
<svg width="32px" height="26px" viewBox="0 0 32 26" version="1.1" xmlns="http://www.w3.org/2000/svg" xmlns:xlink="http://www.w3.org/1999/xlink">
    <!-- Generator: Sketch Beta 45 (43445) - http://www.bohemiancoding.com/sketch -->
    <title>twitter</title>
    <desc>Created with Sketch Beta.</desc>
    <defs>
        <polygon id="path-1" points="0 13.0028 0 -0.0001 32 -0.0001 32 13.0028 32 26.0057 0 26.0057"></polygon>
    </defs>
    <g id="Symbols" stroke="none" stroke-width="1" fill="none" fill-rule="evenodd">
        <g id="footer" transform="translate(-683.000000, -81.000000)">
            <g id="social-media" transform="translate(371.000000, 77.000000)">
                <g id="twitter">
                    <g transform="translate(312.000000, 4.000000)">
                        <mask id="mask-2" fill="white">
                            <use xlink:href="#path-1"></use>
                        </mask>
                        <g id="Clip-2"></g>
                        <path d="M32,3.0787 C30.823,3.6007 29.558,3.9537 28.229,4.1127 C29.585,3.2997 30.626,2.0127 31.116,0.4807 C29.848,1.2327 28.442,1.7787 26.947,2.0737 C25.75,0.7977 24.043,-0.0003 22.155,-0.0003 C18.529,-0.0003 15.59,2.9397 15.59,6.5647 C15.59,7.0797 15.647,7.5807 15.76,8.0617 C10.303,7.7867 5.466,5.1737 2.228,1.2017 C1.663,2.1717 1.339,3.2997 1.339,4.5027 C1.339,6.7807 2.498,8.7897 4.259,9.9667 C3.183,9.9327 2.171,9.6377 1.286,9.1457 C1.285,9.1727 1.285,9.2007 1.285,9.2277 C1.285,12.4087 3.548,15.0627 6.552,15.6657 C6.001,15.8157 5.421,15.8957 4.822,15.8957 C4.399,15.8957 3.988,15.8547 3.587,15.7787 C4.422,18.3867 6.847,20.2847 9.72,20.3377 C7.473,22.0987 4.642,23.1477 1.566,23.1477 C1.036,23.1477 0.514,23.1167 0,23.0557 C2.905,24.9187 6.356,26.0057 10.063,26.0057 C22.14,26.0057 28.743,16.0017 28.743,7.3257 C28.743,7.0417 28.737,6.7587 28.724,6.4767 C30.007,5.5517 31.12,4.3947 32,3.0787" id="Fill-1" fill="#000000" mask="url(#mask-2)"></path>
                    </g>
                </g>
            </g>
        </g>
    </g>
</svg>