<?xml version="1.0" encoding="UTF-8"?>
<svg width="27px" height="32px" viewBox="0 0 27 32" version="1.1" xmlns="http://www.w3.org/2000/svg" xmlns:xlink="http://www.w3.org/1999/xlink">
    <!-- Generator: Sketch Beta 45 (43445) - http://www.bohemiancoding.com/sketch -->
    <title>youtube</title>
    <desc>Created with Sketch Beta.</desc>
    <defs>
        <polygon id="path-1" points="17.2178 0 0.2668 0 0.2668 12.0867 17.2178 12.0867 17.2178 3.55271368e-15"></polygon>
        <polygon id="path-3" points="26.451 18.9997405 26.451 0.564410043 0 0.564410043 2.71050543e-20 18.9997405"></polygon>
    </defs>
    <g id="Symbols" stroke="none" stroke-width="1" fill="none" fill-rule="evenodd">
        <g id="footer" transform="translate(-411.000000, -78.000000)">
            <g id="social-media" transform="translate(371.000000, 77.000000)">
                <g id="youtube">
                    <g transform="translate(40.000000, 1.000000)">
                        <g id="Group-5" transform="translate(4.000000, 0.000200)">
                            <mask id="mask-2" fill="white">
                                <use xlink:href="#path-1"></use>
                            </mask>
                            <g id="Clip-4"></g>
                            <path d="M17.2178,11.9627 L17.2178,3.0487 L15.6018,3.0487 L15.6018,9.8617 C15.2438,10.3677 14.9038,10.6177 14.5818,10.6177 C14.3648,10.6177 14.2378,10.4897 14.2028,10.2397 C14.1838,10.1877 14.1838,9.9907 14.1838,9.6107 L14.1838,3.0487 L12.5728,3.0487 L12.5728,10.0977 C12.5728,10.7267 12.6268,11.1537 12.7158,11.4227 C12.8768,11.8747 13.2358,12.0867 13.7568,12.0867 C14.3458,12.0867 14.9588,11.7287 15.6018,10.9897 L15.6018,11.9627 L17.2178,11.9627 Z M9.6278,9.3807 C9.6278,10.2057 9.3788,10.6177 8.8578,10.6177 C8.3358,10.6177 8.0858,10.2057 8.0858,9.3807 L8.0858,5.6307 C8.0858,4.8057 8.3358,4.3957 8.8578,4.3957 C9.3788,4.3957 9.6278,4.8057 9.6278,5.6307 L9.6278,9.3807 Z M11.2438,9.0767 L11.2438,5.9537 C11.2438,5.0017 11.0798,4.3047 10.7418,3.8547 C10.2948,3.2447 9.6668,2.9397 8.8578,2.9397 C8.0528,2.9397 7.4238,3.2447 6.9768,3.8547 C6.6338,4.3047 6.4708,5.0017 6.4708,5.9537 L6.4708,9.0767 C6.4708,10.0237 6.6338,10.7267 6.9768,11.1737 C7.4238,11.7807 8.0528,12.0867 8.8578,12.0867 C9.6668,12.0867 10.2948,11.7807 10.7418,11.1737 C11.0798,10.7267 11.2438,10.0237 11.2438,9.0767 L11.2438,9.0767 Z M6.4558,-0.0003 L4.6448,-0.0003 L3.4228,4.6977 L2.1518,-0.0003 L0.2668,-0.0003 C0.6438,1.1077 1.0368,2.2237 1.4148,3.3327 C1.9888,5.0017 2.3478,6.2587 2.5098,7.1177 L2.5098,11.9627 L4.3008,11.9627 L4.3008,7.1177 L6.4558,-0.0003 Z" id="Fill-3" fill="#000000" mask="url(#mask-2)"></path>
                        </g>
                        <g id="Group-8" transform="translate(0.000000, 13.000200)">
                            <mask id="mask-4" fill="white">
                                <use xlink:href="#path-3"></use>
                            </mask>
                            <g id="Clip-7"></g>
                            <path d="M24.4795,11.3855 L21.2835,11.3855 L21.2835,12.9495 C21.2835,13.7655 21.5505,14.1725 22.0995,14.1725 C22.4925,14.1725 22.7225,13.9595 22.8135,13.5315 C22.8285,13.4455 22.8485,13.0905 22.8485,12.4495 L24.4795,12.4495 L24.4795,12.6825 C24.4795,13.1975 24.4595,13.5515 24.4455,13.7125 C24.3915,14.0665 24.2655,14.3865 24.0725,14.6705 C23.6295,15.3105 22.9735,15.6265 22.1395,15.6265 C21.3025,15.6265 20.6655,15.3255 20.2045,14.7225 C19.8655,14.2815 19.6905,13.5855 19.6905,12.6485 L19.6905,9.5575 C19.6905,8.6155 19.8445,7.9265 20.1845,7.4805 C20.6465,6.8755 21.2835,6.5755 22.0995,6.5755 C22.9015,6.5755 23.5385,6.8755 23.9855,7.4805 C24.3195,7.9265 24.4795,8.6155 24.4795,9.5575 L24.4795,11.3855 Z M18.4465,12.8575 C18.4465,13.6735 18.3925,14.2605 18.2865,14.6345 C18.0725,15.2915 17.6445,15.6265 17.0075,15.6265 C16.4395,15.6265 15.8905,15.3105 15.3565,14.6495 L15.3565,15.5045 L13.7575,15.5045 L13.7575,3.6645 L15.3565,3.6645 L15.3565,7.5315 C15.8725,6.8975 16.4195,6.5755 17.0075,6.5755 C17.6445,6.5755 18.0725,6.9105 18.2865,7.5715 C18.3925,7.9265 18.4465,8.5095 18.4465,9.3445 L18.4465,12.8575 Z M12.3745,15.5045 L10.7745,15.5045 L10.7745,14.5425 C10.1395,15.2715 9.5365,15.6265 8.9485,15.6265 C8.4335,15.6265 8.0785,15.4165 7.9175,14.9695 C7.8305,14.7025 7.7775,14.2815 7.7775,13.6595 L7.7775,6.6835 L9.3745,6.6835 L9.3745,13.1785 C9.3745,13.5515 9.3745,13.7475 9.3905,13.7995 C9.4285,14.0475 9.5505,14.1725 9.7635,14.1725 C10.0845,14.1725 10.4195,13.9255 10.7745,13.4245 L10.7745,6.6835 L12.3745,6.6835 L12.3745,15.5045 Z M7.5445,5.3315 L5.6295,5.3315 L5.6295,15.5045 L3.8515,15.5045 L3.8515,5.3315 L1.9715,5.3315 L1.9715,3.6645 L7.5445,3.6645 L7.5445,5.3315 Z M25.9935,3.5295 C25.6695,2.1235 24.5185,1.0865 23.1335,0.9315 C19.8535,0.5645 16.5345,0.5635 13.2295,0.5645 C9.9235,0.5635 6.6045,0.5645 3.3245,0.9315 C1.9395,1.0865 0.7895,2.1235 0.4665,3.5295 C0.0045,5.5345 -0.0005,7.7195 -0.0005,9.7815 C-0.0005,11.8445 -0.0005,14.0315 0.4605,16.0355 C0.7845,17.4425 1.9335,18.4795 3.3185,18.6335 C6.5985,18.9995 9.9175,19.0015 13.2235,18.9995 C16.5285,19.0015 19.8485,18.9995 23.1285,18.6335 C24.5125,18.4795 25.6645,17.4425 25.9875,16.0355 C26.4485,14.0315 26.4515,11.8445 26.4515,9.7815 C26.4515,7.7195 26.4535,5.5345 25.9935,3.5295 L25.9935,3.5295 Z" id="Fill-6" fill="#000000" mask="url(#mask-4)"></path>
                        </g>
                        <path d="M16.1533,21.0146 C15.8903,21.0146 15.6243,21.1396 15.3563,21.4026 L15.3563,26.7806 C15.6243,27.0476 15.8903,27.1726 16.1533,27.1726 C16.6143,27.1726 16.8483,26.7806 16.8483,25.9836 L16.8483,22.2186 C16.8483,21.4226 16.6143,21.0146 16.1533,21.0146" id="Fill-9" fill="#000000"></path>
                        <path d="M22.085,21.0146 C21.551,21.0146 21.283,21.4226 21.283,22.2386 L21.283,23.0546 L22.882,23.0546 L22.882,22.2386 C22.882,21.4226 22.614,21.0146 22.085,21.0146" id="Fill-11" fill="#000000"></path>
                    </g>
                </g>
            </g>
        </g>
    </g>
</svg>