<?xml version="1.0" encoding="UTF-8"?>
<svg width="180px" height="170px" viewBox="0 0 180 170" version="1.1" xmlns="http://www.w3.org/2000/svg" xmlns:xlink="http://www.w3.org/1999/xlink">
    <!-- Generator: Sketch Beta 45 (43445) - http://www.bohemiancoding.com/sketch -->
    <title>logo</title>
    <desc>Created with Sketch Beta.</desc>
    <defs></defs>
    <g id="Symbols" stroke="none" stroke-width="1" fill="none" fill-rule="evenodd">
        <g id="header" transform="translate(-39.000000, -32.000000)" fill="#FFFFFF">
            <g id="logo">
                <g transform="translate(39.000000, 32.000000)">
                    <path d="M73.9082731,51.8775606 L63.7196542,55.7717977 L75.9226634,23.3402073 L80.7398883,20.2927481 L73.9082731,51.8775606 Z M137.304646,32.0554328 C136.071173,31.0948104 84.179688,49.6063143 84.179688,49.6063143 C84.179688,49.6063143 94.3438443,0.666320054 93.3869854,0.0359410139 C92.3398035,-0.651830745 71.7687478,8.76716115 70.7686091,9.95923614 C69.6621528,11.2764461 34.3468136,116.895984 18.8799463,109.022832 C5.82827761,102.379389 24.2137057,78.7495841 43.9332793,71.3468643 L49.1202638,59.6406314 C49.1202638,59.6406314 -21.3354138,87.9832257 6.51510851,122.69453 C15.4947168,133.888933 35.2321668,131.594165 42.4241331,115.702027 C48.4437825,102.398207 59.5817333,67.8364998 59.5817333,67.8364998 L71.8402535,63.7493855 C71.8402535,63.7493855 54.5104751,131.93758 54.9969019,135.193912 C55.8568518,140.904017 58.7321329,159.799393 63.5700568,156.644675 C64.8900893,155.782844 82.2800831,61.2382189 82.2800831,61.2382189 C82.2800831,61.2382189 122.516142,48.6626275 123.792895,47.8403121 C125.073411,47.0142333 138.458146,32.954899 137.304646,32.0554328 L137.304646,32.0554328 Z" id="Fill-1"></path>
                    <path d="M86.4440659,66.2404177 C85.7873427,67.0316845 77.912309,118.210936 78.3055903,118.794271 C78.7891945,119.51121 87.0659772,121.322374 88.0425943,120.984603 C88.7821136,120.73057 93.3660041,92.1499371 93.3660041,92.1499371 L100.923026,78.4001471 C100.923026,78.4001471 95.3568729,110.563591 95.8263641,111.394374 C96.2469304,112.139539 107.055579,114.53592 107.986094,114.071133 C109.100077,113.513201 119.520148,76.5758114 119.520148,76.5758114 C119.520148,76.5758114 115.960859,109.844771 116.610055,110.667086 C117.277128,111.506337 126.14101,113.08793 127.076229,112.611853 C127.978518,112.150829 135.526131,69.8636859 134.962553,68.7939232 C134.281367,67.5011758 122.342741,63.2945718 121.223113,63.6859713 C120.175931,64.0529083 111.258419,79.0079454 111.258419,79.0079454 C111.258419,79.0079454 113.435579,66.2432403 113.084637,65.1461926 C112.710173,63.9738758 105.314039,60.2424082 104.328954,60.6469798 C103.565913,60.9602876 93.7404681,81.6837633 93.7404681,81.6837633 C93.7404681,81.6837633 96.111446,64.0641987 95.5629221,63.6859713 C94.8393975,63.1873132 87.2014617,65.3296611 86.4440659,66.2404177" id="Fill-3"></path>
                    <g id="Group-7" transform="translate(101.887641, 46.559129)">
                        <path d="M65.2268705,65.133384 C66.6313766,58.3688825 78.6091771,0.578459478 77.9829263,0.112535997 C77.1700196,-0.494321437 66.7207814,2.21913103 65.9455093,3.03109687 C65.2191621,3.79131517 57.3714135,47.0691884 56.8181853,47.8058851 C56.2056827,48.6187918 46.7095399,55.4033639 45.9737841,54.8153237 C45.1693451,54.1680091 54.5394121,6.04844848 53.6352416,5.34091857 C52.6774418,4.5929315 42.7475606,6.93662432 41.830218,7.77305263 C41.0765857,8.45894266 31.5127007,55.8794412 32.2249349,57.3471894 C33.5891881,60.1547283 39.605074,63.420468 42.6007858,64.3029987 C43.7015969,64.6275969 46.0236499,65.209051 47.1413966,64.9512542 C49.8313275,64.3349881 56.5820284,59.227977 56.5820284,59.227977 C55.372077,68.9376959 54.1978784,83.9934055 45.6745892,93.6523178 C37.6640711,102.727894 22.4051349,106.910036 17.6067273,101.248856 C10.7280688,93.1357833 51.9322773,74.398472 51.9322773,74.398472 L53.5599724,68.701539 C17.0629077,78.6718774 2.54537253,90.9520374 0.374798733,100.811354 C-2.52682658,113.998507 11.7714873,130.841859 37.7139369,119.871382 C55.1813877,112.48659 62.0314357,83.9430419 64.2199144,71.5616698 C67.2271585,70.4237189 71.7670398,68.5893212 73.4552054,67.2934416 C74.8410984,66.230265 77.7107343,61.9841447 77.1697374,61.3735238 C76.7559512,60.9090568 69.6845249,63.4619617 65.2268705,65.133384 Z" id="Combined-Shape"></path>
                    </g>
                </g>
            </g>
        </g>
    </g>
</svg>