<svg width="180" height="170" viewBox="0 0 180 170" xmlns="http://www.w3.org/2000/svg"><title>logo</title><g fill="#FFF" fill-rule="evenodd"><path d="M73.908 51.878L63.72 55.772 75.923 23.34l4.817-3.047-6.832 31.585zm63.397-19.823c-1.234-.96-53.125 17.551-53.125 17.551S94.344.666 93.387.036C92.34-.652 71.769 8.767 70.769 9.959c-1.107 1.317-36.422 106.937-51.89 99.064-13.05-6.644 5.335-30.273 25.054-37.676L49.12 59.64s-70.455 28.342-42.605 63.054c8.98 11.194 28.717 8.9 35.91-6.993 6.019-13.304 17.157-47.866 17.157-47.866L71.84 63.75s-17.33 68.189-16.843 71.445c.86 5.71 3.735 24.605 8.573 21.45 1.32-.861 18.71-95.406 18.71-95.406s40.236-12.575 41.513-13.398c1.28-.826 14.665-14.885 13.512-15.785z"/><path d="M86.444 66.24c-.657.792-8.532 51.97-8.138 52.554.483.717 8.76 2.528 9.737 2.19.74-.253 5.323-28.834 5.323-28.834l7.557-13.75s-5.566 32.164-5.097 32.994c.42.746 11.23 3.142 12.16 2.677 1.114-.558 11.534-37.495 11.534-37.495s-3.56 33.269-2.91 34.091c.667.84 9.531 2.42 10.466 1.945.903-.461 8.45-42.748 7.887-43.818-.682-1.293-12.62-5.5-13.74-5.108-1.047.367-9.965 15.322-9.965 15.322s2.178-12.765 1.827-13.862c-.375-1.172-7.771-4.904-8.756-4.499-.763.313-10.589 21.037-10.589 21.037s2.371-17.62 1.823-17.998c-.724-.499-8.362 1.644-9.119 2.554"/><path d="M167.115 111.693c1.404-6.765 13.382-64.555 12.756-65.021-.813-.607-11.263 2.106-12.038 2.918-.726.76-8.574 44.038-9.127 44.775-.613.813-10.109 7.597-10.845 7.01-.804-.648 8.566-48.767 7.662-49.475-.958-.748-10.888 1.596-11.805 2.432-.754.686-10.318 48.107-9.605 49.574 1.364 2.808 7.38 6.074 10.375 6.956 1.101.325 3.423.906 4.541.648 2.69-.616 9.44-5.723 9.44-5.723-1.21 9.71-2.383 24.766-10.907 34.424-8.01 9.076-23.27 13.258-28.068 7.597-6.878-8.113 34.326-26.85 34.326-26.85l1.628-5.697c-36.497 9.97-51.015 22.25-53.186 32.11-2.901 13.187 11.397 30.03 37.34 19.06 17.467-7.385 24.317-35.929 26.506-48.31 3.007-1.138 7.547-2.973 9.235-4.268 1.386-1.064 4.255-5.31 3.714-5.92-.413-.465-7.485 2.088-11.942 3.76z"/></g></svg>