<?xml version="1.0" encoding="UTF-8"?><!DOCTYPE svg PUBLIC "-//W3C//DTD SVG 1.1//EN" "http://www.w3.org/Graphics/SVG/1.1/DTD/svg11.dtd"><svg xmlns="http://www.w3.org/2000/svg" xmlns:xlink="http://www.w3.org/1999/xlink"><defs><path id="a" d="M0 0v32h32V0z"/><path id="a" d="M0 13.003V0h32v26.006H0z"/><path id="a" d="M17.218 0H.267v12.087h16.95V0z"/><path id="c" d="M26.451 19V.564H0V19z"/></defs><symbol id="codepen" viewBox="0 0 34.4 34.4"><title>codepen</title><path d="M17.2 31.6c-7.9 0-14.4-6.4-14.4-14.4 0-7.9 6.4-14.4 14.4-14.4 7.9 0 14.4 6.4 14.4 14.4 0 7.9-6.5 14.4-14.4 14.4m0-31.6C7.7 0 0 7.7 0 17.2s7.7 17.2 17.2 17.2 17.2-7.7 17.2-17.2S26.7 0 17.2 0"/><path d="M26 18.7l-2.3-1.5 2.3-1.5v3zm-7.9 6.5v-4.3l4-2.6 3.2 2.1-7.2 4.8zm-.9-5.8L14 17.2l3.2-2.2 3.2 2.2-3.2 2.2zm-.9 5.8l-7.2-4.8 3.2-2.1 4 2.6v4.3zm-7.9-9.5l2.3 1.5-2.3 1.5v-3zm7.9-6.5v4.3l-4 2.6L9.1 14l7.2-4.8zm1.8 0l7.2 4.8-3.2 2.1-4-2.6V9.2zm9.7 4.6v-.1-.1-.1-.1h-.1L18 6.9c-.3-.2-.7-.2-1 0L7 13.2h-.1V20.7H7l9.7 6.5c.2.1.3.2.5.2s.4-.1.5-.2l9.7-6.5h.1v-.1-.1V14c.3-.1.3-.1.3-.2z"/></symbol><symbol id="dribbble" viewBox="0 0 32 32"><title>dribbble</title><g fill-rule="evenodd"><mask id="b"><use xlink:href="#a"/></mask><path d="M26.579 7.378c-.288.39-2.578 3.326-7.631 5.39a42.52 42.52 0 0 1 1.2 2.683c4.548-.572 9.067.345 9.517.44a13.6 13.6 0 0 0-3.086-8.513M12.798 2.734c.378.506 2.86 3.886 5.099 8 4.86-1.82 6.917-4.586 7.163-4.936A13.608 13.608 0 0 0 16 2.354c-1.102 0-2.174.132-3.202.38M2.622 13.221c.612.01 6.243.033 12.635-1.665a87.374 87.374 0 0 0-5.067-7.904c-3.823 1.804-6.681 5.33-7.568 9.57m3.225 11.936c.31-.529 4.06-6.74 11.109-9.018.178-.058.358-.112.538-.163a45.81 45.81 0 0 0-1.107-2.319C9.56 15.7 2.939 15.615 2.34 15.603a13.61 13.61 0 0 0 3.506 9.555m15.492 3.443c-.203-1.199-.997-5.378-2.916-10.364l-.09.03C10.625 20.954 7.858 26.3 7.612 26.802A13.597 13.597 0 0 0 16 29.687c1.893 0 3.698-.387 5.339-1.086m8.155-10.41c-.467-.148-4.23-1.27-8.513-.585 1.788 4.912 2.515 8.912 2.655 9.743a13.69 13.69 0 0 0 5.858-9.159M16 32C7.178 32 0 24.822 0 16 0 7.177 7.178 0 16 0c8.823 0 16 7.177 16 16 0 8.822-7.177 16-16 16" mask="url(#b)"/></g></symbol><symbol id="facebook" viewBox="0 0 17 32"><title>facebook</title><path d="M3.678 17.684V32h6.964V17.752h4.754l1.151-5.94h-5.855V7.455c0-.602.321-1.406 1.296-1.406h3.384V0h-6.32c-2.18 0-5.398 2.685-5.398 5.54v6.104H0v6.015l3.678.025z" fill-rule="evenodd"/></symbol><symbol id="instagram" viewBox="0 0 32 32"><title>instagram</title><path d="M28 8a2 2 0 0 1-2 2h-2a2 2 0 0 1-2-2V6a2 2 0 0 1 2-2h2a2 2 0 0 1 2 2v2zm0 18c0 1.105-.894 2-2 2H6c-1.106 0-2-.895-2-2V16c0-1.105.894-2 2-2h2.284C8.116 14.643 8 15.305 8 16a8 8 0 0 0 16 0c0-.695-.118-1.357-.284-2H26c1.106 0 2 .895 2 2v10zM16 12c3.684 0 4 4 4 4s.118 4-4 4c-4.116 0-4-4-4-4s.316-4 4-4zM28 0H4C1.792 0 0 1.792 0 4v24c0 2.208 1.792 4 4 4h24c2.208 0 4-1.792 4-4V4c0-2.208-1.792-4-4-4z" fill-rule="evenodd"/></symbol><symbol id="pinterest" viewBox="0 0 32 32"><title>pinterest</title><path d="M32 16c0 2.902-.715 5.58-2.146 8.031a15.926 15.926 0 0 1-5.823 5.823C21.58 31.285 18.903 32 16 32c-1.542 0-3.056-.223-4.542-.666.82-1.293 1.361-2.432 1.625-3.418.125-.472.5-1.937 1.125-4.395.278.542.785 1.01 1.521 1.407a4.958 4.958 0 0 0 2.375.593c1.681 0 3.181-.476 4.5-1.427 1.32-.951 2.34-2.26 3.062-3.928.723-1.666 1.084-3.541 1.084-5.625a8.567 8.567 0 0 0-1.24-4.457c-.826-1.39-2.024-2.522-3.594-3.397-1.569-.875-3.34-1.312-5.312-1.312-1.458 0-2.819.201-4.083.604-1.264.403-2.337.937-3.219 1.605a10.977 10.977 0 0 0-2.271 2.301 9.534 9.534 0 0 0-1.396 2.699 9.101 9.101 0 0 0-.448 2.791c0 1.444.278 2.715.834 3.813.555 1.097 1.368 1.868 2.437 2.312.417.166.681.027.792-.416.028-.098.083-.313.166-.647.084-.333.14-.541.167-.624.083-.32.007-.619-.229-.897-.708-.847-1.063-1.895-1.063-3.145 0-2.097.727-3.9 2.178-5.406 1.451-1.508 3.35-2.261 5.697-2.261 2.098 0 3.733.57 4.907 1.709 1.174 1.138 1.76 2.618 1.76 4.437 0 2.361-.476 4.368-1.427 6.021-.951 1.653-2.17 2.479-3.656 2.479-.847 0-1.528-.303-2.042-.906-.514-.604-.673-1.33-.479-2.178.111-.485.295-1.135.552-1.947.257-.813.466-1.528.625-2.147.16-.617.24-1.141.24-1.572 0-.694-.188-1.271-.563-1.729-.375-.458-.909-.687-1.604-.687-.861 0-1.59.395-2.188 1.187-.597.791-.895 1.778-.895 2.958 0 1.014.173 1.861.52 2.542l-2.062 8.708c-.236.972-.326 2.202-.271 3.687-2.861-1.264-5.173-3.215-6.937-5.853C.882 22.174 0 19.236 0 16c0-2.902.715-5.58 2.146-8.031a15.926 15.926 0 0 1 5.823-5.823C10.42.715 13.097 0 16 0c2.903 0 5.58.715 8.031 2.146a15.926 15.926 0 0 1 5.823 5.823C31.285 10.42 32 13.098 32 16" fill-rule="evenodd"/></symbol><symbol id="search" viewBox="0 0 13.5 13.5"><style>.st0{fill:#fff}</style><title>Shape</title><path id="Shape" class="st0" d="M13.5 12.6L9.8 8.9c.7-1 1.2-2.1 1.2-3.4 0-1.5-.6-2.8-1.6-3.9C8.3.6 7 0 5.5 0S2.6.6 1.6 1.6 0 4 0 5.5s.6 2.8 1.6 3.9c1 1 2.4 1.6 3.9 1.6 1.2 0 2.4-.4 3.4-1.2l3.7 3.7.9-.9zm-8-3c-1.1 0-2.1-.4-2.9-1.2-.8-.8-1.2-1.8-1.2-2.9 0-1.1.4-2.1 1.2-2.9.8-.8 1.8-1.2 2.9-1.2s2.1.4 2.9 1.2c.8.8 1.2 1.8 1.2 2.9 0 1.1-.4 2.1-1.2 2.9-.8.8-1.8 1.2-2.9 1.2z"/></symbol><symbol id="twitter" viewBox="0 0 32 26"><title>twitter</title><g fill-rule="evenodd"><mask id="b"><use xlink:href="#a"/></mask><path d="M32 3.079a13.13 13.13 0 0 1-3.771 1.034A6.587 6.587 0 0 0 31.116.48a13.166 13.166 0 0 1-4.169 1.593A6.565 6.565 0 0 0 15.59 6.565c0 .515.057 1.016.17 1.497a18.642 18.642 0 0 1-13.532-6.86 6.539 6.539 0 0 0-.889 3.3 6.561 6.561 0 0 0 2.92 5.465 6.532 6.532 0 0 1-2.973-.821l-.001.082a6.57 6.57 0 0 0 5.267 6.438 6.578 6.578 0 0 1-2.965.113 6.571 6.571 0 0 0 6.133 4.559 13.172 13.172 0 0 1-8.154 2.81c-.53 0-1.052-.031-1.566-.092a18.578 18.578 0 0 0 10.063 2.95c12.077 0 18.68-10.004 18.68-18.68 0-.284-.006-.567-.019-.85A13.33 13.33 0 0 0 32 3.08" mask="url(#b)"/></g></symbol><symbol id="youtube" viewBox="0 0 27 32"><title>youtube</title><g fill-rule="evenodd"><g transform="translate(4)"><mask id="b"><use xlink:href="#a"/></mask><path d="M17.218 11.963V3.049h-1.616v6.813c-.358.506-.698.756-1.02.756-.217 0-.344-.128-.38-.378-.018-.052-.018-.25-.018-.63V3.05h-1.611v7.049c0 .629.054 1.056.143 1.325.16.452.52.664 1.04.664.59 0 1.203-.358 1.846-1.097v.973h1.616zM9.628 9.38c0 .825-.25 1.237-.77 1.237-.522 0-.772-.412-.772-1.237V5.63c0-.825.25-1.235.772-1.235.52 0 .77.41.77 1.235v3.75zm1.616-.304V5.954c0-.952-.164-1.65-.502-2.1-.447-.61-1.075-.914-1.884-.914-.805 0-1.434.305-1.881.915-.343.45-.506 1.147-.506 2.099v3.123c0 .947.163 1.65.506 2.097.447.607 1.076.913 1.88.913.81 0 1.438-.306 1.885-.913.338-.447.502-1.15.502-2.097zM6.456 0H4.645L3.423 4.698 2.152 0H.267c.377 1.108.77 2.224 1.148 3.333.574 1.669.933 2.926 1.095 3.785v4.845H4.3V7.118L6.457 0z" mask="url(#b)"/></g><g transform="translate(0 13)"><mask id="d"><use xlink:href="#c"/></mask><path d="M24.48 11.386h-3.197v1.564c0 .816.267 1.223.816 1.223.393 0 .623-.213.715-.642.014-.086.035-.44.035-1.082h1.63v.233c0 .515-.02.87-.034 1.03-.053.354-.18.675-.372.959-.444.64-1.1.956-1.933.956-.838 0-1.474-.302-1.936-.905-.338-.44-.514-1.136-.514-2.073V9.558c0-.942.154-1.631.494-2.077.462-.606 1.1-.905 1.915-.905.802 0 1.44.3 1.886.905.335.446.495 1.135.495 2.076v1.829zm-6.034 1.472c0 .816-.054 1.402-.16 1.776-.213.657-.642.992-1.279.992-.568 0-1.117-.316-1.65-.976v.854h-1.6V3.665h1.6v3.868c.516-.635 1.063-.957 1.65-.957.637 0 1.066.335 1.28.997.105.354.16.937.16 1.772v3.514zm-6.072 2.646h-1.6v-.961c-.634.729-1.237 1.084-1.825 1.084-.515 0-.87-.21-1.031-.658-.088-.266-.14-.688-.14-1.31V6.683h1.596v6.495c0 .373 0 .57.016.621.038.248.16.373.373.373.322 0 .656-.247 1.011-.748v-6.74h1.6v8.82zM7.544 5.332H5.63v10.172H3.852V5.332h-1.88V3.665h5.573v1.667zm18.45-1.802c-.325-1.406-1.476-2.443-2.86-2.598-3.28-.368-6.6-.369-9.905-.368-3.305 0-6.624 0-9.904.368C1.939 1.085.789 2.123.466 3.529.004 5.535 0 7.72 0 9.781c0 2.063 0 4.25.462 6.254.323 1.407 1.472 2.445 2.857 2.599 3.28.366 6.6.367 9.905.366 3.306.002 6.626 0 9.905-.366 1.384-.154 2.537-1.192 2.86-2.599.46-2.004.463-4.19.463-6.254 0-2.062.002-4.247-.457-6.252z" mask="url(#d)"/></g><path d="M16.153 21.015c-.263 0-.529.125-.797.388v5.378c.268.267.534.392.797.392.461 0 .695-.392.695-1.19V22.22c0-.796-.234-1.204-.695-1.204M22.085 21.015c-.534 0-.802.408-.802 1.224v.816h1.599v-.816c0-.816-.268-1.224-.797-1.224"/></g></symbol></svg>